<?xml version="1.0" encoding="utf-8" standalone="no"?>
<!DOCTYPE svg PUBLIC "-//W3C//DTD SVG 1.1//EN"
  "http://www.w3.org/Graphics/SVG/1.1/DTD/svg11.dtd">
<!-- Created with matplotlib (http://matplotlib.org/) -->
<svg height="648pt" version="1.1" viewBox="0 0 648 648" width="648pt" xmlns="http://www.w3.org/2000/svg" xmlns:xlink="http://www.w3.org/1999/xlink">
 <defs>
  <style type="text/css">
*{stroke-linecap:butt;stroke-linejoin:round;}
  </style>
 </defs>
 <g id="figure_1">
  <g id="patch_1">
   <path d="M 0 648 
L 648 648 
L 648 0 
L 0 0 
z
" style="fill:#ffffff;"/>
  </g>
  <g id="axes_1">
   <g id="patch_2">
    <path d="M 81 576.72 
L 583.2 576.72 
L 583.2 77.76 
L 81 77.76 
z
" style="fill:#ffffff;"/>
   </g>
   <g id="matplotlib.axis_1">
    <g id="xtick_1">
     <g id="line2d_1">
      <path clip-path="url(#p1cd0ad9965)" d="M 122.85 576.72 
L 122.85 77.76 
" style="fill:none;stroke:#f5f5f5;stroke-linecap:square;"/>
     </g>
     <g id="line2d_2">
      <defs>
       <path d="M 0 0 
L 0 -6 
" id="mae6fdae663" style="stroke:#000000;"/>
      </defs>
      <g>
       <use style="stroke:#000000;" x="122.85" xlink:href="#mae6fdae663" y="576.72"/>
      </g>
     </g>
     <g id="text_1">
      <!-- 1 -->
      <defs>
       <path d="M 39.40625 0 
L 11.796875 0 
L 11.796875 1.5 
Q 17.296875 1.796875 19.296875 3.546875 
Q 21.296875 5.296875 21.296875 9.5 
L 21.296875 54.40625 
Q 21.296875 59.296875 18.296875 59.296875 
Q 16.90625 59.296875 13.796875 58.09375 
L 11.09375 57.09375 
L 11.09375 58.5 
L 29 67.59375 
L 29.90625 67.296875 
L 29.90625 7.59375 
Q 29.90625 4.296875 31.90625 2.890625 
Q 33.90625 1.5 39.40625 1.5 
z
" id="STIXGeneral-Regular-31"/>
      </defs>
      <g transform="translate(117.85 593.879375)scale(0.2 -0.2)">
       <use xlink:href="#STIXGeneral-Regular-31"/>
      </g>
     </g>
    </g>
    <g id="xtick_2">
     <g id="line2d_3">
      <path clip-path="url(#p1cd0ad9965)" d="M 164.7 576.72 
L 164.7 77.76 
" style="fill:none;stroke:#f5f5f5;stroke-linecap:square;"/>
     </g>
     <g id="line2d_4">
      <g>
       <use style="stroke:#000000;" x="164.7" xlink:href="#mae6fdae663" y="576.72"/>
      </g>
     </g>
     <g id="text_2">
      <!-- 2 -->
      <defs>
       <path d="M 47.40625 13.703125 
L 42 0 
L 2.90625 0 
L 2.90625 1.203125 
L 20.703125 20.09375 
Q 27.703125 27.40625 30.703125 33.5 
Q 33.703125 39.59375 33.703125 46.09375 
Q 33.703125 52.796875 30 56.5 
Q 26.296875 60.203125 19.796875 60.203125 
Q 14.40625 60.203125 11.25 57.390625 
Q 8.09375 54.59375 5.09375 47.203125 
L 3 47.703125 
Q 4.703125 57 9.84375 62.296875 
Q 15 67.59375 23.796875 67.59375 
Q 32.09375 67.59375 37.1875 62.59375 
Q 42.296875 57.59375 42.296875 50 
Q 42.296875 38.703125 29.5 25.203125 
L 13 7.59375 
L 36.40625 7.59375 
Q 39.703125 7.59375 41.640625 8.890625 
Q 43.59375 10.203125 46 14.296875 
z
" id="STIXGeneral-Regular-32"/>
      </defs>
      <g transform="translate(159.7 593.879375)scale(0.2 -0.2)">
       <use xlink:href="#STIXGeneral-Regular-32"/>
      </g>
     </g>
    </g>
    <g id="xtick_3">
     <g id="line2d_5">
      <path clip-path="url(#p1cd0ad9965)" d="M 206.55 576.72 
L 206.55 77.76 
" style="fill:none;stroke:#f5f5f5;stroke-linecap:square;"/>
     </g>
     <g id="line2d_6">
      <g>
       <use style="stroke:#000000;" x="206.55" xlink:href="#mae6fdae663" y="576.72"/>
      </g>
     </g>
     <g id="text_3">
      <!-- 3 -->
      <defs>
       <path d="M 6.09375 51 
L 4.5 51.40625 
Q 6.796875 58.90625 11.6875 63.25 
Q 16.59375 67.59375 24.09375 67.59375 
Q 31.09375 67.59375 35.390625 63.796875 
Q 39.703125 60 39.703125 53.90625 
Q 39.703125 45.703125 30.40625 40.09375 
Q 35.90625 37.703125 38.703125 34.796875 
Q 43.09375 29.90625 43.09375 21.90625 
Q 43.09375 13.90625 38.5 7.90625 
Q 35.09375 3.296875 28.75 0.9375 
Q 22.40625 -1.40625 15.296875 -1.40625 
Q 4.09375 -1.40625 4.09375 4.296875 
Q 4.09375 5.90625 5.296875 6.90625 
Q 6.5 7.90625 8.203125 7.90625 
Q 10.703125 7.90625 14.296875 5.296875 
Q 18.703125 2.203125 22.90625 2.203125 
Q 28.40625 2.203125 32.15625 6.640625 
Q 35.90625 11.09375 35.90625 17.5 
Q 35.90625 29 25.5 32 
Q 22.40625 33 15.296875 33 
L 15.296875 34.40625 
Q 20.90625 36.296875 23.703125 38 
Q 31.796875 42.59375 31.796875 51.40625 
Q 31.796875 56.40625 28.9375 59 
Q 26.09375 61.59375 21 61.59375 
Q 12 61.59375 6.09375 51 
z
" id="STIXGeneral-Regular-33"/>
      </defs>
      <g transform="translate(201.55 593.879375)scale(0.2 -0.2)">
       <use xlink:href="#STIXGeneral-Regular-33"/>
      </g>
     </g>
    </g>
    <g id="xtick_4">
     <g id="line2d_7">
      <path clip-path="url(#p1cd0ad9965)" d="M 248.4 576.72 
L 248.4 77.76 
" style="fill:none;stroke:#f5f5f5;stroke-linecap:square;"/>
     </g>
     <g id="line2d_8">
      <g>
       <use style="stroke:#000000;" x="248.4" xlink:href="#mae6fdae663" y="576.72"/>
      </g>
     </g>
     <g id="text_4">
      <!-- 4 -->
      <defs>
       <path d="M 47.296875 16.703125 
L 37 16.703125 
L 37 0 
L 29.203125 0 
L 29.203125 16.703125 
L 1.203125 16.703125 
L 1.203125 23.09375 
L 32.59375 67.59375 
L 37 67.59375 
L 37 23.09375 
L 47.296875 23.09375 
z
M 29.203125 23.09375 
L 29.203125 57.40625 
L 5.203125 23.09375 
z
" id="STIXGeneral-Regular-34"/>
      </defs>
      <g transform="translate(243.4 593.879375)scale(0.2 -0.2)">
       <use xlink:href="#STIXGeneral-Regular-34"/>
      </g>
     </g>
    </g>
    <g id="xtick_5">
     <g id="line2d_9">
      <path clip-path="url(#p1cd0ad9965)" d="M 290.25 576.72 
L 290.25 77.76 
" style="fill:none;stroke:#f5f5f5;stroke-linecap:square;"/>
     </g>
     <g id="line2d_10">
      <g>
       <use style="stroke:#000000;" x="290.25" xlink:href="#mae6fdae663" y="576.72"/>
      </g>
     </g>
     <g id="text_5">
      <!-- 5 -->
      <defs>
       <path d="M 43.796875 68.09375 
L 40.203125 59.59375 
Q 39.59375 58.296875 37.5 58.296875 
L 18.09375 58.296875 
L 14.09375 49.796875 
Q 25.09375 47.703125 30 45.25 
Q 34.90625 42.796875 39.09375 37 
Q 42.59375 32.203125 42.59375 24.296875 
Q 42.59375 17.09375 40.25 12.1875 
Q 37.90625 7.296875 32.796875 3.5 
Q 26 -1.40625 15.796875 -1.40625 
Q 10.09375 -1.40625 6.59375 0.296875 
Q 3.09375 2 3.09375 4.796875 
Q 3.09375 8.59375 7.59375 8.59375 
Q 11.203125 8.59375 15 5.5 
Q 18.90625 2.296875 22.09375 2.296875 
Q 27.296875 2.296875 31.4375 7.5 
Q 35.59375 12.703125 35.59375 19.203125 
Q 35.59375 28.796875 28.90625 34.203125 
Q 20.203125 41.203125 7.59375 41.203125 
Q 6.40625 41.203125 6.40625 42 
L 6.5 42.5 
L 17.40625 66.203125 
L 38.09375 66.203125 
Q 39.796875 66.203125 40.75 66.703125 
Q 41.703125 67.203125 42.90625 68.796875 
z
" id="STIXGeneral-Regular-35"/>
      </defs>
      <g transform="translate(285.25 593.879375)scale(0.2 -0.2)">
       <use xlink:href="#STIXGeneral-Regular-35"/>
      </g>
     </g>
    </g>
    <g id="xtick_6">
     <g id="line2d_11">
      <path clip-path="url(#p1cd0ad9965)" d="M 332.1 576.72 
L 332.1 77.76 
" style="fill:none;stroke:#f5f5f5;stroke-linecap:square;"/>
     </g>
     <g id="line2d_12">
      <g>
       <use style="stroke:#000000;" x="332.1" xlink:href="#mae6fdae663" y="576.72"/>
      </g>
     </g>
     <g id="text_6">
      <!-- 6 -->
      <defs>
       <path d="M 44.59375 68.40625 
L 44.796875 66.796875 
Q 33 64.90625 25.09375 57.25 
Q 17.203125 49.59375 15.203125 38.296875 
Q 21 42.796875 27.90625 42.796875 
Q 36.703125 42.796875 41.75 37.1875 
Q 46.796875 31.59375 46.796875 21.90625 
Q 46.796875 12.09375 41.703125 5.90625 
Q 35.796875 -1.40625 25.796875 -1.40625 
Q 13.59375 -1.40625 8.09375 8.703125 
Q 3.40625 17.296875 3.40625 27.90625 
Q 3.40625 44.296875 14.296875 55.5 
Q 20.5 61.90625 27.046875 64.546875 
Q 33.59375 67.203125 44.59375 68.40625 
z
M 37.796875 18.796875 
Q 37.796875 38.203125 24.296875 38.203125 
Q 19.296875 38.203125 16 35.546875 
Q 12.703125 32.90625 12.703125 26.59375 
Q 12.703125 14.90625 16.34375 8.15625 
Q 20 1.40625 26.90625 1.40625 
Q 32.203125 1.40625 35 6.15625 
Q 37.796875 10.90625 37.796875 18.796875 
z
" id="STIXGeneral-Regular-36"/>
      </defs>
      <g transform="translate(327.1 593.879375)scale(0.2 -0.2)">
       <use xlink:href="#STIXGeneral-Regular-36"/>
      </g>
     </g>
    </g>
    <g id="xtick_7">
     <g id="line2d_13">
      <path clip-path="url(#p1cd0ad9965)" d="M 373.95 576.72 
L 373.95 77.76 
" style="fill:none;stroke:#f5f5f5;stroke-linecap:square;"/>
     </g>
     <g id="line2d_14">
      <g>
       <use style="stroke:#000000;" x="373.95" xlink:href="#mae6fdae663" y="576.72"/>
      </g>
     </g>
     <g id="text_7">
      <!-- 7 -->
      <defs>
       <path d="M 44.90625 64.59375 
L 23.703125 -0.796875 
L 17.203125 -0.796875 
L 37 58.796875 
L 15.5 58.796875 
Q 11.203125 58.796875 9.09375 57.296875 
Q 7 55.796875 3.796875 50.59375 
L 2 51.5 
L 8 66.203125 
L 44.90625 66.203125 
z
" id="STIXGeneral-Regular-37"/>
      </defs>
      <g transform="translate(368.95 593.879375)scale(0.2 -0.2)">
       <use xlink:href="#STIXGeneral-Regular-37"/>
      </g>
     </g>
    </g>
    <g id="xtick_8">
     <g id="line2d_15">
      <path clip-path="url(#p1cd0ad9965)" d="M 415.8 576.72 
L 415.8 77.76 
" style="fill:none;stroke:#f5f5f5;stroke-linecap:square;"/>
     </g>
     <g id="line2d_16">
      <g>
       <use style="stroke:#000000;" x="415.8" xlink:href="#mae6fdae663" y="576.72"/>
      </g>
     </g>
     <g id="text_8">
      <!-- 8 -->
      <defs>
       <path d="M 44.5 15.5 
Q 44.5 7.796875 39.140625 3.1875 
Q 33.796875 -1.40625 24.796875 -1.40625 
Q 16.40625 -1.40625 11 3.1875 
Q 5.59375 7.796875 5.59375 14.90625 
Q 5.59375 20.203125 8.1875 23.953125 
Q 10.796875 27.703125 18.59375 33.203125 
Q 11.09375 39.40625 8.640625 43.203125 
Q 6.203125 47 6.203125 52 
Q 6.203125 59.09375 11.640625 63.34375 
Q 17.09375 67.59375 25.59375 67.59375 
Q 32.90625 67.59375 37.65625 63.4375 
Q 42.40625 59.296875 42.40625 53.296875 
Q 42.40625 47.796875 39.546875 44.5 
Q 36.703125 41.203125 29 37.09375 
Q 38 31.09375 41.25 26.390625 
Q 44.5 21.703125 44.5 15.5 
z
M 35.5 53.296875 
Q 35.5 58.5 32.59375 61.640625 
Q 29.703125 64.796875 24.59375 64.796875 
Q 19.5 64.796875 16.546875 62.140625 
Q 13.59375 59.5 13.59375 54.890625 
Q 13.59375 50.296875 16.546875 46.546875 
Q 19.5 42.796875 26.09375 38.90625 
Q 31.203125 41.90625 33.34375 45.25 
Q 35.5 48.59375 35.5 53.296875 
z
M 27.09375 27.203125 
L 21.203125 31.203125 
Q 16.796875 27.59375 15 24.140625 
Q 13.203125 20.703125 13.203125 15.796875 
Q 13.203125 9 16.640625 5.203125 
Q 20.09375 1.40625 25.90625 1.40625 
Q 30.796875 1.40625 33.84375 4.453125 
Q 36.90625 7.5 36.90625 12.40625 
Q 36.90625 16.90625 34.59375 20.296875 
Q 32.296875 23.703125 27.09375 27.203125 
z
" id="STIXGeneral-Regular-38"/>
      </defs>
      <g transform="translate(410.8 593.879375)scale(0.2 -0.2)">
       <use xlink:href="#STIXGeneral-Regular-38"/>
      </g>
     </g>
    </g>
    <g id="xtick_9">
     <g id="line2d_17">
      <path clip-path="url(#p1cd0ad9965)" d="M 457.65 576.72 
L 457.65 77.76 
" style="fill:none;stroke:#f5f5f5;stroke-linecap:square;"/>
     </g>
     <g id="line2d_18">
      <g>
       <use style="stroke:#000000;" x="457.65" xlink:href="#mae6fdae663" y="576.72"/>
      </g>
     </g>
     <g id="text_9">
      <!-- 9 -->
      <defs>
       <path d="M 5.90625 -2.203125 
L 5.59375 -0.203125 
Q 17.09375 1.796875 25.046875 9.5 
Q 33 17.203125 36 29.40625 
Q 30.203125 23.703125 21 23.703125 
Q 12.90625 23.703125 7.953125 29.296875 
Q 3 34.90625 3 44 
Q 3 54.09375 8.953125 60.84375 
Q 14.90625 67.59375 23.796875 67.59375 
Q 33.296875 67.59375 39.5 60 
Q 45.90625 52 45.90625 39.40625 
Q 45.90625 30.59375 42.84375 22.84375 
Q 39.796875 15.09375 33.90625 9.703125 
Q 27.703125 4.09375 21.796875 1.640625 
Q 15.90625 -0.796875 5.90625 -2.203125 
z
M 36.203125 35.5 
L 36.203125 39.40625 
Q 36.203125 64.796875 23 64.796875 
Q 18.296875 64.796875 15.703125 61.40625 
Q 14.203125 59.40625 13.203125 55.40625 
Q 12.203125 51.40625 12.203125 47.40625 
Q 12.203125 38.5 15.546875 33.25 
Q 18.90625 28 24.5 28 
Q 28.5 28 32.34375 29.953125 
Q 36.203125 31.90625 36.203125 35.5 
z
" id="STIXGeneral-Regular-39"/>
      </defs>
      <g transform="translate(452.65 593.879375)scale(0.2 -0.2)">
       <use xlink:href="#STIXGeneral-Regular-39"/>
      </g>
     </g>
    </g>
    <g id="xtick_10">
     <g id="line2d_19">
      <path clip-path="url(#p1cd0ad9965)" d="M 499.5 576.72 
L 499.5 77.76 
" style="fill:none;stroke:#f5f5f5;stroke-linecap:square;"/>
     </g>
     <g id="line2d_20">
      <g>
       <use style="stroke:#000000;" x="499.5" xlink:href="#mae6fdae663" y="576.72"/>
      </g>
     </g>
     <g id="text_10">
      <!-- 10 -->
      <defs>
       <path d="M 47.59375 33 
Q 47.59375 26.296875 46.296875 20.34375 
Q 45 14.40625 42.453125 9.40625 
Q 39.90625 4.40625 35.40625 1.5 
Q 30.90625 -1.40625 25 -1.40625 
Q 18.90625 -1.40625 14.296875 1.6875 
Q 9.703125 4.796875 7.203125 10 
Q 4.703125 15.203125 3.546875 21.09375 
Q 2.40625 27 2.40625 33.59375 
Q 2.40625 42.90625 4.703125 50.34375 
Q 7 57.796875 12.34375 62.6875 
Q 17.703125 67.59375 25.40625 67.59375 
Q 35.203125 67.59375 41.390625 58 
Q 47.59375 48.40625 47.59375 33 
z
M 38 32.5 
Q 38 48.296875 34.640625 56.640625 
Q 31.296875 65 24.796875 65 
Q 18.59375 65 15.296875 56.59375 
Q 12 48.203125 12 32.90625 
Q 12 17.5 15.296875 9.34375 
Q 18.59375 1.203125 25 1.203125 
Q 31.296875 1.203125 34.640625 9.34375 
Q 38 17.5 38 32.5 
z
" id="STIXGeneral-Regular-30"/>
      </defs>
      <g transform="translate(489.5 593.879375)scale(0.2 -0.2)">
       <use xlink:href="#STIXGeneral-Regular-31"/>
       <use x="49.999985" xlink:href="#STIXGeneral-Regular-30"/>
      </g>
     </g>
    </g>
    <g id="xtick_11">
     <g id="line2d_21">
      <path clip-path="url(#p1cd0ad9965)" d="M 541.35 576.72 
L 541.35 77.76 
" style="fill:none;stroke:#f5f5f5;stroke-linecap:square;"/>
     </g>
     <g id="line2d_22">
      <g>
       <use style="stroke:#000000;" x="541.35" xlink:href="#mae6fdae663" y="576.72"/>
      </g>
     </g>
     <g id="text_11">
      <!-- 11 -->
      <g transform="translate(531.35 593.879375)scale(0.2 -0.2)">
       <use xlink:href="#STIXGeneral-Regular-31"/>
       <use x="49.999985" xlink:href="#STIXGeneral-Regular-31"/>
      </g>
     </g>
    </g>
    <g id="xtick_12">
     <g id="line2d_23">
      <path clip-path="url(#p1cd0ad9965)" d="M 583.2 576.72 
L 583.2 77.76 
" style="fill:none;stroke:#f5f5f5;stroke-linecap:square;"/>
     </g>
     <g id="line2d_24">
      <g>
       <use style="stroke:#000000;" x="583.2" xlink:href="#mae6fdae663" y="576.72"/>
      </g>
     </g>
     <g id="text_12">
      <!-- 12 -->
      <g transform="translate(573.2 593.879375)scale(0.2 -0.2)">
       <use xlink:href="#STIXGeneral-Regular-31"/>
       <use x="49.999985" xlink:href="#STIXGeneral-Regular-32"/>
      </g>
     </g>
    </g>
    <g id="xtick_13">
     <g id="line2d_25">
      <defs>
       <path d="M 0 0 
L 0 -4 
" id="m70e06bd936" style="stroke:#000000;"/>
      </defs>
      <g>
       <use style="stroke:#000000;" x="81" xlink:href="#m70e06bd936" y="576.72"/>
      </g>
     </g>
    </g>
    <g id="xtick_14">
     <g id="line2d_26">
      <g>
       <use style="stroke:#000000;" x="101.925" xlink:href="#m70e06bd936" y="576.72"/>
      </g>
     </g>
    </g>
    <g id="xtick_15">
     <g id="line2d_27">
      <g>
       <use style="stroke:#000000;" x="122.85" xlink:href="#m70e06bd936" y="576.72"/>
      </g>
     </g>
    </g>
    <g id="xtick_16">
     <g id="line2d_28">
      <g>
       <use style="stroke:#000000;" x="143.775" xlink:href="#m70e06bd936" y="576.72"/>
      </g>
     </g>
    </g>
    <g id="xtick_17">
     <g id="line2d_29">
      <g>
       <use style="stroke:#000000;" x="164.7" xlink:href="#m70e06bd936" y="576.72"/>
      </g>
     </g>
    </g>
    <g id="xtick_18">
     <g id="line2d_30">
      <g>
       <use style="stroke:#000000;" x="185.625" xlink:href="#m70e06bd936" y="576.72"/>
      </g>
     </g>
    </g>
    <g id="xtick_19">
     <g id="line2d_31">
      <g>
       <use style="stroke:#000000;" x="206.55" xlink:href="#m70e06bd936" y="576.72"/>
      </g>
     </g>
    </g>
    <g id="xtick_20">
     <g id="line2d_32">
      <g>
       <use style="stroke:#000000;" x="227.475" xlink:href="#m70e06bd936" y="576.72"/>
      </g>
     </g>
    </g>
    <g id="xtick_21">
     <g id="line2d_33">
      <g>
       <use style="stroke:#000000;" x="248.4" xlink:href="#m70e06bd936" y="576.72"/>
      </g>
     </g>
    </g>
    <g id="xtick_22">
     <g id="line2d_34">
      <g>
       <use style="stroke:#000000;" x="269.325" xlink:href="#m70e06bd936" y="576.72"/>
      </g>
     </g>
    </g>
    <g id="xtick_23">
     <g id="line2d_35">
      <g>
       <use style="stroke:#000000;" x="290.25" xlink:href="#m70e06bd936" y="576.72"/>
      </g>
     </g>
    </g>
    <g id="xtick_24">
     <g id="line2d_36">
      <g>
       <use style="stroke:#000000;" x="311.175" xlink:href="#m70e06bd936" y="576.72"/>
      </g>
     </g>
    </g>
    <g id="xtick_25">
     <g id="line2d_37">
      <g>
       <use style="stroke:#000000;" x="332.1" xlink:href="#m70e06bd936" y="576.72"/>
      </g>
     </g>
    </g>
    <g id="xtick_26">
     <g id="line2d_38">
      <g>
       <use style="stroke:#000000;" x="353.025" xlink:href="#m70e06bd936" y="576.72"/>
      </g>
     </g>
    </g>
    <g id="xtick_27">
     <g id="line2d_39">
      <g>
       <use style="stroke:#000000;" x="373.95" xlink:href="#m70e06bd936" y="576.72"/>
      </g>
     </g>
    </g>
    <g id="xtick_28">
     <g id="line2d_40">
      <g>
       <use style="stroke:#000000;" x="394.875" xlink:href="#m70e06bd936" y="576.72"/>
      </g>
     </g>
    </g>
    <g id="xtick_29">
     <g id="line2d_41">
      <g>
       <use style="stroke:#000000;" x="415.8" xlink:href="#m70e06bd936" y="576.72"/>
      </g>
     </g>
    </g>
    <g id="xtick_30">
     <g id="line2d_42">
      <g>
       <use style="stroke:#000000;" x="436.725" xlink:href="#m70e06bd936" y="576.72"/>
      </g>
     </g>
    </g>
    <g id="xtick_31">
     <g id="line2d_43">
      <g>
       <use style="stroke:#000000;" x="457.65" xlink:href="#m70e06bd936" y="576.72"/>
      </g>
     </g>
    </g>
    <g id="xtick_32">
     <g id="line2d_44">
      <g>
       <use style="stroke:#000000;" x="478.575" xlink:href="#m70e06bd936" y="576.72"/>
      </g>
     </g>
    </g>
    <g id="xtick_33">
     <g id="line2d_45">
      <g>
       <use style="stroke:#000000;" x="499.5" xlink:href="#m70e06bd936" y="576.72"/>
      </g>
     </g>
    </g>
    <g id="xtick_34">
     <g id="line2d_46">
      <g>
       <use style="stroke:#000000;" x="520.425" xlink:href="#m70e06bd936" y="576.72"/>
      </g>
     </g>
    </g>
    <g id="xtick_35">
     <g id="line2d_47">
      <g>
       <use style="stroke:#000000;" x="541.35" xlink:href="#m70e06bd936" y="576.72"/>
      </g>
     </g>
    </g>
    <g id="xtick_36">
     <g id="line2d_48">
      <g>
       <use style="stroke:#000000;" x="562.275" xlink:href="#m70e06bd936" y="576.72"/>
      </g>
     </g>
    </g>
    <g id="xtick_37">
     <g id="line2d_49">
      <g>
       <use style="stroke:#000000;" x="583.2" xlink:href="#m70e06bd936" y="576.72"/>
      </g>
     </g>
    </g>
    <g id="text_13">
     <!-- $d_F\;/\;nm$ -->
     <defs>
      <path d="M 52.09375 68.296875 
L 52.703125 67.703125 
L 48.796875 52.5 
L 42.796875 30.59375 
Q 36.296875 6.703125 36.296875 6 
Q 36.296875 4 38.09375 4 
Q 39.40625 4 40.84375 5.25 
Q 42.296875 6.5 46.296875 11.09375 
L 47.5 10.09375 
Q 39.796875 -1.296875 32.796875 -1.296875 
Q 30.90625 -1.296875 29.796875 -0.09375 
Q 28.703125 1.09375 28.703125 3.203125 
Q 28.703125 6.203125 30 12.09375 
Q 25.703125 4.796875 21.546875 1.84375 
Q 17.40625 -1.09375 12.203125 -1.09375 
Q 7.203125 -1.09375 4.34375 1.953125 
Q 1.5 5 1.5 10.59375 
Q 1.5 22.5 11.140625 33.296875 
Q 20.796875 44.09375 30.703125 44.09375 
Q 33.796875 44.09375 35.25 42.6875 
Q 36.703125 41.296875 37.203125 38.296875 
L 37.296875 38.296875 
L 41.796875 54.59375 
Q 43.203125 59.5 43.203125 61.703125 
Q 43.203125 63.296875 42.09375 63.6875 
Q 41 64.09375 36.796875 64.296875 
L 36.796875 66 
Q 44.5 66.703125 52.09375 68.296875 
z
M 35.59375 36.09375 
Q 35.59375 38.703125 34.140625 40.25 
Q 32.703125 41.796875 30.90625 41.796875 
Q 26.203125 41.796875 21.796875 37.203125 
Q 16.796875 31.90625 13.5 24.546875 
Q 10.203125 17.203125 10.203125 11 
Q 10.203125 7.59375 11.75 5.640625 
Q 13.296875 3.703125 16 3.703125 
Q 20.5 3.703125 25.09375 8.59375 
Q 29.703125 13.5 32.640625 21.09375 
Q 35.59375 28.703125 35.59375 36.09375 
z
" id="STIXGeneral-Italic-64"/>
      <path d="M 64.5 65.296875 
L 61.296875 49.90625 
L 59.203125 50.09375 
Q 59.5 52.296875 59.5 53.40625 
Q 59.5 57.296875 58.09375 58.9375 
Q 56.703125 60.59375 52.703125 61.296875 
Q 48.703125 62 39.59375 62 
Q 36.09375 62 34.6875 61.34375 
Q 33.296875 60.703125 32.796875 58.796875 
L 26.40625 36.09375 
Q 31.296875 36.203125 33.546875 36.203125 
Q 35.796875 36.203125 38.390625 36.640625 
Q 41 37.09375 41.84375 37.4375 
Q 42.703125 37.796875 44.09375 39.140625 
Q 45.5 40.5 46.09375 41.640625 
Q 46.703125 42.796875 48 45.5 
L 49.796875 45 
L 42.203125 21.5 
L 40.5 22 
Q 41.296875 26.09375 41.296875 28.09375 
Q 41.296875 30.90625 39.546875 31.703125 
Q 37.796875 32.5 33.796875 32.5 
Q 31 32.5 25.5 32.796875 
L 19.59375 11.5 
Q 18.203125 6.5 18.203125 5.5 
Q 18.203125 3.703125 19.890625 2.796875 
Q 21.59375 1.90625 25.90625 1.59375 
L 25.90625 0 
L 0.796875 0 
L 0.796875 1.59375 
Q 4.90625 1.90625 6.40625 3.5 
Q 7.90625 5.09375 9.09375 9.40625 
L 21.40625 53.59375 
Q 22.40625 57.203125 22.40625 59.703125 
Q 22.40625 61.796875 21.046875 62.546875 
Q 19.703125 63.296875 14.796875 63.703125 
L 14.796875 65.296875 
z
" id="STIXGeneral-Italic-46"/>
      <path d="M 28.703125 67.59375 
L 5.90625 -1.40625 
L -0.90625 -1.40625 
L 22 67.59375 
z
" id="STIXGeneral-Regular-2f"/>
      <path d="M 46 11.703125 
L 47.40625 10.40625 
Q 42.296875 3.40625 39.59375 1.25 
Q 36.90625 -0.90625 33.40625 -0.90625 
Q 31.40625 -0.90625 30.046875 0.4375 
Q 28.703125 1.796875 28.703125 4.5 
Q 28.703125 6.09375 30.296875 12 
L 34.703125 28.203125 
Q 36.09375 33.59375 36.09375 36.09375 
Q 36.09375 39 33.703125 39 
Q 30.796875 39 27.34375 35.546875 
Q 23.90625 32.09375 18.90625 24.796875 
Q 15.59375 19.90625 14.046875 16 
Q 12.5 12.09375 8.90625 0 
L 1.40625 0 
L 11 35 
Q 11.203125 36 11.203125 36.703125 
Q 11.203125 38.203125 9.84375 38.75 
Q 8.5 39.296875 4.703125 39.40625 
L 4.703125 41 
Q 8.59375 41.796875 13.390625 42.640625 
Q 18.203125 43.5 20.90625 44.09375 
L 21.296875 43.90625 
L 14.59375 22.09375 
Q 22 33.90625 27.390625 39 
Q 32.796875 44.09375 37.703125 44.09375 
Q 40.796875 44.09375 42.5 42.4375 
Q 44.203125 40.796875 44.203125 38 
Q 44.203125 35.5 43.203125 32 
L 37.59375 11.703125 
Q 36.203125 6.703125 36.203125 5.59375 
Q 36.203125 3.796875 37.796875 3.796875 
Q 39.703125 3.796875 43.90625 9.09375 
Q 44.59375 9.90625 46 11.703125 
z
" id="STIXGeneral-Italic-6e"/>
      <path d="M 70.40625 10.5 
L 69.90625 9.796875 
Q 62.203125 -0.90625 55.5 -0.90625 
Q 51.5 -0.90625 51.5 3.703125 
Q 51.5 5.203125 52.796875 10.296875 
L 58.59375 33 
Q 59.296875 35.796875 59.296875 36.796875 
Q 59.296875 37.703125 58.6875 38.296875 
Q 58.09375 38.90625 57.296875 38.90625 
Q 52.59375 38.90625 44.203125 27.203125 
Q 40.5 22 38.390625 16.75 
Q 36.296875 11.5 33.40625 0 
L 25.90625 0 
L 28.59375 9.296875 
Q 35.40625 32.796875 35.40625 36.40625 
Q 35.40625 38.90625 33.203125 38.90625 
Q 30.703125 38.90625 26.59375 34.953125 
Q 22.5 31 18.296875 24.59375 
Q 15.796875 20.703125 14.046875 16.296875 
Q 12.296875 11.90625 8.703125 0 
L 1.203125 0 
L 5.5 14.40625 
Q 11 32.703125 11 37.203125 
Q 11 39.40625 6.90625 39.40625 
L 4.40625 39.40625 
L 4.40625 41 
L 20.59375 44.09375 
L 20.90625 43.90625 
L 15.09375 23 
Q 28.09375 44.09375 37.09375 44.09375 
Q 40 44.09375 41.546875 42.5 
Q 43.09375 40.90625 43.09375 38.09375 
Q 43.09375 34.296875 39.09375 22.90625 
Q 44.40625 31.296875 47.953125 35.546875 
Q 51.5 39.796875 55.09375 42.09375 
Q 58.296875 44.09375 61.40625 44.09375 
Q 64.09375 44.09375 65.640625 42.34375 
Q 67.203125 40.59375 67.203125 37.796875 
Q 67.203125 36.5 66.90625 35 
L 60.09375 9.90625 
Q 59.09375 6.09375 59.09375 5.40625 
Q 59.09375 3.796875 60.296875 3.796875 
Q 62.5 3.796875 66.796875 9.09375 
L 68.90625 11.703125 
z
" id="STIXGeneral-Italic-6d"/>
     </defs>
     <g transform="translate(303.3 615.879375)scale(0.2 -0.2)">
      <use transform="translate(0 0.703125)" xlink:href="#STIXGeneral-Italic-64"/>
      <use transform="translate(49.999985 -12.525)scale(0.7)" xlink:href="#STIXGeneral-Italic-46"/>
      <use transform="translate(117.235064 0.703125)" xlink:href="#STIXGeneral-Regular-2f"/>
      <use transform="translate(165.090763 0.703125)" xlink:href="#STIXGeneral-Italic-6e"/>
      <use transform="translate(215.090748 0.703125)" xlink:href="#STIXGeneral-Italic-6d"/>
     </g>
    </g>
   </g>
   <g id="matplotlib.axis_2">
    <g id="ytick_1">
     <g id="line2d_50">
      <path clip-path="url(#p1cd0ad9965)" d="M 81 576.72 
L 583.2 576.72 
" style="fill:none;stroke:#f5f5f5;stroke-linecap:square;"/>
     </g>
     <g id="line2d_51">
      <defs>
       <path d="M 0 0 
L 6 0 
" id="m70470ebb70" style="stroke:#000000;"/>
      </defs>
      <g>
       <use style="stroke:#000000;" x="81" xlink:href="#m70470ebb70" y="576.72"/>
      </g>
     </g>
     <g id="text_14">
      <!-- 0.0 -->
      <defs>
       <path d="M 18.09375 4.296875 
Q 18.09375 2.09375 16.4375 0.5 
Q 14.796875 -1.09375 12.5 -1.09375 
Q 10.203125 -1.09375 8.59375 0.5 
Q 7 2.09375 7 4.390625 
Q 7 6.703125 8.640625 8.34375 
Q 10.296875 10 12.59375 10 
Q 14.796875 10 16.4375 8.296875 
Q 18.09375 6.59375 18.09375 4.296875 
z
" id="STIXGeneral-Regular-2e"/>
      </defs>
      <g transform="translate(52.5 583.549688)scale(0.2 -0.2)">
       <use xlink:href="#STIXGeneral-Regular-30"/>
       <use x="49.999985" xlink:href="#STIXGeneral-Regular-2e"/>
       <use x="74.999969" xlink:href="#STIXGeneral-Regular-30"/>
      </g>
     </g>
    </g>
    <g id="ytick_2">
     <g id="line2d_52">
      <path clip-path="url(#p1cd0ad9965)" d="M 81 535.14 
L 583.2 535.14 
" style="fill:none;stroke:#f5f5f5;stroke-linecap:square;"/>
     </g>
     <g id="line2d_53">
      <g>
       <use style="stroke:#000000;" x="81" xlink:href="#m70470ebb70" y="535.14"/>
      </g>
     </g>
     <g id="text_15">
      <!-- 1.0 -->
      <g transform="translate(52.5 541.969687)scale(0.2 -0.2)">
       <use xlink:href="#STIXGeneral-Regular-31"/>
       <use x="49.999985" xlink:href="#STIXGeneral-Regular-2e"/>
       <use x="74.999969" xlink:href="#STIXGeneral-Regular-30"/>
      </g>
     </g>
    </g>
    <g id="ytick_3">
     <g id="line2d_54">
      <path clip-path="url(#p1cd0ad9965)" d="M 81 493.56 
L 583.2 493.56 
" style="fill:none;stroke:#f5f5f5;stroke-linecap:square;"/>
     </g>
     <g id="line2d_55">
      <g>
       <use style="stroke:#000000;" x="81" xlink:href="#m70470ebb70" y="493.56"/>
      </g>
     </g>
     <g id="text_16">
      <!-- 2.0 -->
      <g transform="translate(52.5 500.389688)scale(0.2 -0.2)">
       <use xlink:href="#STIXGeneral-Regular-32"/>
       <use x="49.999985" xlink:href="#STIXGeneral-Regular-2e"/>
       <use x="74.999969" xlink:href="#STIXGeneral-Regular-30"/>
      </g>
     </g>
    </g>
    <g id="ytick_4">
     <g id="line2d_56">
      <path clip-path="url(#p1cd0ad9965)" d="M 81 451.98 
L 583.2 451.98 
" style="fill:none;stroke:#f5f5f5;stroke-linecap:square;"/>
     </g>
     <g id="line2d_57">
      <g>
       <use style="stroke:#000000;" x="81" xlink:href="#m70470ebb70" y="451.98"/>
      </g>
     </g>
     <g id="text_17">
      <!-- 3.0 -->
      <g transform="translate(52.5 458.809687)scale(0.2 -0.2)">
       <use xlink:href="#STIXGeneral-Regular-33"/>
       <use x="49.999985" xlink:href="#STIXGeneral-Regular-2e"/>
       <use x="74.999969" xlink:href="#STIXGeneral-Regular-30"/>
      </g>
     </g>
    </g>
    <g id="ytick_5">
     <g id="line2d_58">
      <path clip-path="url(#p1cd0ad9965)" d="M 81 410.4 
L 583.2 410.4 
" style="fill:none;stroke:#f5f5f5;stroke-linecap:square;"/>
     </g>
     <g id="line2d_59">
      <g>
       <use style="stroke:#000000;" x="81" xlink:href="#m70470ebb70" y="410.4"/>
      </g>
     </g>
     <g id="text_18">
      <!-- 4.0 -->
      <g transform="translate(52.5 417.229688)scale(0.2 -0.2)">
       <use xlink:href="#STIXGeneral-Regular-34"/>
       <use x="49.999985" xlink:href="#STIXGeneral-Regular-2e"/>
       <use x="74.999969" xlink:href="#STIXGeneral-Regular-30"/>
      </g>
     </g>
    </g>
    <g id="ytick_6">
     <g id="line2d_60">
      <path clip-path="url(#p1cd0ad9965)" d="M 81 368.82 
L 583.2 368.82 
" style="fill:none;stroke:#f5f5f5;stroke-linecap:square;"/>
     </g>
     <g id="line2d_61">
      <g>
       <use style="stroke:#000000;" x="81" xlink:href="#m70470ebb70" y="368.82"/>
      </g>
     </g>
     <g id="text_19">
      <!-- 5.0 -->
      <g transform="translate(52.5 375.649688)scale(0.2 -0.2)">
       <use xlink:href="#STIXGeneral-Regular-35"/>
       <use x="49.999985" xlink:href="#STIXGeneral-Regular-2e"/>
       <use x="74.999969" xlink:href="#STIXGeneral-Regular-30"/>
      </g>
     </g>
    </g>
    <g id="ytick_7">
     <g id="line2d_62">
      <path clip-path="url(#p1cd0ad9965)" d="M 81 327.24 
L 583.2 327.24 
" style="fill:none;stroke:#f5f5f5;stroke-linecap:square;"/>
     </g>
     <g id="line2d_63">
      <g>
       <use style="stroke:#000000;" x="81" xlink:href="#m70470ebb70" y="327.24"/>
      </g>
     </g>
     <g id="text_20">
      <!-- 6.0 -->
      <g transform="translate(52.5 334.069687)scale(0.2 -0.2)">
       <use xlink:href="#STIXGeneral-Regular-36"/>
       <use x="49.999985" xlink:href="#STIXGeneral-Regular-2e"/>
       <use x="74.999969" xlink:href="#STIXGeneral-Regular-30"/>
      </g>
     </g>
    </g>
    <g id="ytick_8">
     <g id="line2d_64">
      <path clip-path="url(#p1cd0ad9965)" d="M 81 285.66 
L 583.2 285.66 
" style="fill:none;stroke:#f5f5f5;stroke-linecap:square;"/>
     </g>
     <g id="line2d_65">
      <g>
       <use style="stroke:#000000;" x="81" xlink:href="#m70470ebb70" y="285.66"/>
      </g>
     </g>
     <g id="text_21">
      <!-- 7.0 -->
      <g transform="translate(52.5 292.489688)scale(0.2 -0.2)">
       <use xlink:href="#STIXGeneral-Regular-37"/>
       <use x="49.999985" xlink:href="#STIXGeneral-Regular-2e"/>
       <use x="74.999969" xlink:href="#STIXGeneral-Regular-30"/>
      </g>
     </g>
    </g>
    <g id="ytick_9">
     <g id="line2d_66">
      <path clip-path="url(#p1cd0ad9965)" d="M 81 244.08 
L 583.2 244.08 
" style="fill:none;stroke:#f5f5f5;stroke-linecap:square;"/>
     </g>
     <g id="line2d_67">
      <g>
       <use style="stroke:#000000;" x="81" xlink:href="#m70470ebb70" y="244.08"/>
      </g>
     </g>
     <g id="text_22">
      <!-- 8.0 -->
      <g transform="translate(52.5 250.909688)scale(0.2 -0.2)">
       <use xlink:href="#STIXGeneral-Regular-38"/>
       <use x="49.999985" xlink:href="#STIXGeneral-Regular-2e"/>
       <use x="74.999969" xlink:href="#STIXGeneral-Regular-30"/>
      </g>
     </g>
    </g>
    <g id="ytick_10">
     <g id="line2d_68">
      <path clip-path="url(#p1cd0ad9965)" d="M 81 202.5 
L 583.2 202.5 
" style="fill:none;stroke:#f5f5f5;stroke-linecap:square;"/>
     </g>
     <g id="line2d_69">
      <g>
       <use style="stroke:#000000;" x="81" xlink:href="#m70470ebb70" y="202.5"/>
      </g>
     </g>
     <g id="text_23">
      <!-- 9.0 -->
      <g transform="translate(52.5 209.329688)scale(0.2 -0.2)">
       <use xlink:href="#STIXGeneral-Regular-39"/>
       <use x="49.999985" xlink:href="#STIXGeneral-Regular-2e"/>
       <use x="74.999969" xlink:href="#STIXGeneral-Regular-30"/>
      </g>
     </g>
    </g>
    <g id="ytick_11">
     <g id="line2d_70">
      <path clip-path="url(#p1cd0ad9965)" d="M 81 160.92 
L 583.2 160.92 
" style="fill:none;stroke:#f5f5f5;stroke-linecap:square;"/>
     </g>
     <g id="line2d_71">
      <g>
       <use style="stroke:#000000;" x="81" xlink:href="#m70470ebb70" y="160.92"/>
      </g>
     </g>
     <g id="text_24">
      <!-- 10.0 -->
      <g transform="translate(42.5 167.749688)scale(0.2 -0.2)">
       <use xlink:href="#STIXGeneral-Regular-31"/>
       <use x="49.999985" xlink:href="#STIXGeneral-Regular-30"/>
       <use x="99.999969" xlink:href="#STIXGeneral-Regular-2e"/>
       <use x="124.999954" xlink:href="#STIXGeneral-Regular-30"/>
      </g>
     </g>
    </g>
    <g id="ytick_12">
     <g id="line2d_72">
      <path clip-path="url(#p1cd0ad9965)" d="M 81 119.34 
L 583.2 119.34 
" style="fill:none;stroke:#f5f5f5;stroke-linecap:square;"/>
     </g>
     <g id="line2d_73">
      <g>
       <use style="stroke:#000000;" x="81" xlink:href="#m70470ebb70" y="119.34"/>
      </g>
     </g>
     <g id="text_25">
      <!-- 11.0 -->
      <g transform="translate(42.5 126.169688)scale(0.2 -0.2)">
       <use xlink:href="#STIXGeneral-Regular-31"/>
       <use x="49.999985" xlink:href="#STIXGeneral-Regular-31"/>
       <use x="99.999969" xlink:href="#STIXGeneral-Regular-2e"/>
       <use x="124.999954" xlink:href="#STIXGeneral-Regular-30"/>
      </g>
     </g>
    </g>
    <g id="ytick_13">
     <g id="line2d_74">
      <path clip-path="url(#p1cd0ad9965)" d="M 81 77.76 
L 583.2 77.76 
" style="fill:none;stroke:#f5f5f5;stroke-linecap:square;"/>
     </g>
     <g id="line2d_75">
      <g>
       <use style="stroke:#000000;" x="81" xlink:href="#m70470ebb70" y="77.76"/>
      </g>
     </g>
     <g id="text_26">
      <!-- 12.0 -->
      <g transform="translate(42.5 84.589687)scale(0.2 -0.2)">
       <use xlink:href="#STIXGeneral-Regular-31"/>
       <use x="49.999985" xlink:href="#STIXGeneral-Regular-32"/>
       <use x="99.999969" xlink:href="#STIXGeneral-Regular-2e"/>
       <use x="124.999954" xlink:href="#STIXGeneral-Regular-30"/>
      </g>
     </g>
    </g>
    <g id="ytick_14">
     <g id="line2d_76">
      <defs>
       <path d="M 0 0 
L 4 0 
" id="m210eede6db" style="stroke:#000000;"/>
      </defs>
      <g>
       <use style="stroke:#000000;" x="81" xlink:href="#m210eede6db" y="576.72"/>
      </g>
     </g>
    </g>
    <g id="ytick_15">
     <g id="line2d_77">
      <g>
       <use style="stroke:#000000;" x="81" xlink:href="#m210eede6db" y="555.93"/>
      </g>
     </g>
    </g>
    <g id="ytick_16">
     <g id="line2d_78">
      <g>
       <use style="stroke:#000000;" x="81" xlink:href="#m210eede6db" y="535.14"/>
      </g>
     </g>
    </g>
    <g id="ytick_17">
     <g id="line2d_79">
      <g>
       <use style="stroke:#000000;" x="81" xlink:href="#m210eede6db" y="514.35"/>
      </g>
     </g>
    </g>
    <g id="ytick_18">
     <g id="line2d_80">
      <g>
       <use style="stroke:#000000;" x="81" xlink:href="#m210eede6db" y="493.56"/>
      </g>
     </g>
    </g>
    <g id="ytick_19">
     <g id="line2d_81">
      <g>
       <use style="stroke:#000000;" x="81" xlink:href="#m210eede6db" y="472.77"/>
      </g>
     </g>
    </g>
    <g id="ytick_20">
     <g id="line2d_82">
      <g>
       <use style="stroke:#000000;" x="81" xlink:href="#m210eede6db" y="451.98"/>
      </g>
     </g>
    </g>
    <g id="ytick_21">
     <g id="line2d_83">
      <g>
       <use style="stroke:#000000;" x="81" xlink:href="#m210eede6db" y="431.19"/>
      </g>
     </g>
    </g>
    <g id="ytick_22">
     <g id="line2d_84">
      <g>
       <use style="stroke:#000000;" x="81" xlink:href="#m210eede6db" y="410.4"/>
      </g>
     </g>
    </g>
    <g id="ytick_23">
     <g id="line2d_85">
      <g>
       <use style="stroke:#000000;" x="81" xlink:href="#m210eede6db" y="389.61"/>
      </g>
     </g>
    </g>
    <g id="ytick_24">
     <g id="line2d_86">
      <g>
       <use style="stroke:#000000;" x="81" xlink:href="#m210eede6db" y="368.82"/>
      </g>
     </g>
    </g>
    <g id="ytick_25">
     <g id="line2d_87">
      <g>
       <use style="stroke:#000000;" x="81" xlink:href="#m210eede6db" y="348.03"/>
      </g>
     </g>
    </g>
    <g id="ytick_26">
     <g id="line2d_88">
      <g>
       <use style="stroke:#000000;" x="81" xlink:href="#m210eede6db" y="327.24"/>
      </g>
     </g>
    </g>
    <g id="ytick_27">
     <g id="line2d_89">
      <g>
       <use style="stroke:#000000;" x="81" xlink:href="#m210eede6db" y="306.45"/>
      </g>
     </g>
    </g>
    <g id="ytick_28">
     <g id="line2d_90">
      <g>
       <use style="stroke:#000000;" x="81" xlink:href="#m210eede6db" y="285.66"/>
      </g>
     </g>
    </g>
    <g id="ytick_29">
     <g id="line2d_91">
      <g>
       <use style="stroke:#000000;" x="81" xlink:href="#m210eede6db" y="264.87"/>
      </g>
     </g>
    </g>
    <g id="ytick_30">
     <g id="line2d_92">
      <g>
       <use style="stroke:#000000;" x="81" xlink:href="#m210eede6db" y="244.08"/>
      </g>
     </g>
    </g>
    <g id="ytick_31">
     <g id="line2d_93">
      <g>
       <use style="stroke:#000000;" x="81" xlink:href="#m210eede6db" y="223.29"/>
      </g>
     </g>
    </g>
    <g id="ytick_32">
     <g id="line2d_94">
      <g>
       <use style="stroke:#000000;" x="81" xlink:href="#m210eede6db" y="202.5"/>
      </g>
     </g>
    </g>
    <g id="ytick_33">
     <g id="line2d_95">
      <g>
       <use style="stroke:#000000;" x="81" xlink:href="#m210eede6db" y="181.71"/>
      </g>
     </g>
    </g>
    <g id="ytick_34">
     <g id="line2d_96">
      <g>
       <use style="stroke:#000000;" x="81" xlink:href="#m210eede6db" y="160.92"/>
      </g>
     </g>
    </g>
    <g id="ytick_35">
     <g id="line2d_97">
      <g>
       <use style="stroke:#000000;" x="81" xlink:href="#m210eede6db" y="140.13"/>
      </g>
     </g>
    </g>
    <g id="ytick_36">
     <g id="line2d_98">
      <g>
       <use style="stroke:#000000;" x="81" xlink:href="#m210eede6db" y="119.34"/>
      </g>
     </g>
    </g>
    <g id="ytick_37">
     <g id="line2d_99">
      <g>
       <use style="stroke:#000000;" x="81" xlink:href="#m210eede6db" y="98.55"/>
      </g>
     </g>
    </g>
    <g id="ytick_38">
     <g id="line2d_100">
      <g>
       <use style="stroke:#000000;" x="81" xlink:href="#m210eede6db" y="77.76"/>
      </g>
     </g>
    </g>
    <g id="text_27">
     <!-- $\mu_0M_s\cdot d_F\;/\;T\cdot nm$ -->
     <defs>
      <path d="M 46.90625 11.703125 
L 48.296875 10.796875 
Q 43.703125 3.703125 40.84375 1.296875 
Q 38 -1.09375 34.59375 -1.09375 
Q 32.5 -1.09375 31.09375 0.09375 
Q 29.703125 1.296875 29.703125 3.40625 
Q 29.703125 6.5 31.203125 11 
L 34.5 21.40625 
L 34.40625 21.40625 
Q 27.59375 9.296875 23.046875 4.1875 
Q 18.5 -0.90625 14.09375 -0.90625 
Q 11.296875 -0.90625 10.5 1.90625 
Q 9.59375 -1.703125 8.546875 -5.84375 
Q 7.5 -10 7.046875 -11.84375 
Q 6.59375 -13.703125 6 -15.703125 
Q 5.40625 -17.703125 4.90625 -18.703125 
Q 4.40625 -19.703125 3.796875 -20.5 
L -3.296875 -20.5 
Q -0.90625 -17 1.09375 -9.296875 
L 14.203125 42.796875 
L 21.703125 42.796875 
L 14.203125 13 
Q 13.796875 11.203125 13.796875 10.296875 
Q 13.796875 5.5 17.796875 5.5 
Q 21.796875 5.5 28.296875 15.140625 
Q 34.796875 24.796875 36.296875 30.59375 
L 39.59375 42.796875 
L 47.296875 42.796875 
L 39.40625 12.796875 
Q 37.5 5.203125 37.5 5.09375 
Q 37.5 3.59375 38.59375 3.59375 
Q 39.796875 3.59375 41.4375 5.140625 
Q 43.09375 6.703125 46.90625 11.703125 
z
" id="STIXGeneral-Italic-3bc"/>
      <path d="M 87.203125 65.296875 
L 87.203125 63.703125 
Q 83.09375 63 81.640625 61.640625 
Q 80.203125 60.296875 79.09375 56.296875 
L 66.796875 12 
Q 65.40625 7 65.40625 5.796875 
Q 65.40625 3.796875 67.203125 2.75 
Q 69 1.703125 73.5 1.59375 
L 73.40625 0 
L 46.296875 0 
L 46.296875 1.59375 
Q 51.203125 2.09375 53.203125 3.796875 
Q 55.203125 5.5 56.5 10.203125 
L 69.09375 56.09375 
L 31.5 0 
L 29.796875 0 
L 23.59375 54.59375 
L 11.796875 11.796875 
Q 10.90625 8.59375 10.90625 6.40625 
Q 10.90625 2.09375 17.90625 1.59375 
L 17.90625 0 
L -1.796875 0 
L -1.796875 1.59375 
Q 2.203125 2.09375 4.046875 4.4375 
Q 5.90625 6.796875 8.203125 15 
L 19.59375 55.09375 
Q 20.796875 59.203125 20.796875 60.296875 
Q 20.796875 63.296875 13.40625 63.703125 
L 13.40625 65.296875 
L 31.5 65.296875 
L 37.09375 16.09375 
L 70.59375 65.296875 
z
" id="STIXGeneral-Italic-4d"/>
      <path d="M 36.59375 44.203125 
L 34.59375 30.203125 
L 33 30.203125 
Q 31.59375 41.796875 24.09375 41.796875 
Q 21.40625 41.796875 19.796875 40.296875 
Q 18.203125 38.796875 18.203125 36.09375 
Q 18.203125 32.296875 23.59375 25.90625 
Q 30.40625 18 30.40625 12.296875 
Q 30.40625 6.203125 26.34375 2.546875 
Q 22.296875 -1.09375 16 -1.09375 
Q 13.09375 -1.09375 10.5 -0.09375 
Q 8.40625 0.796875 6.09375 0.796875 
Q 4.09375 0.796875 3.203125 -1.296875 
L 1.59375 -1.296875 
L 3.59375 14.59375 
L 5.203125 14.59375 
Q 7.203125 1 15.203125 1 
Q 18.796875 1 20.796875 3 
Q 22.796875 5 22.796875 8.703125 
Q 22.796875 13.203125 17.203125 20.203125 
Q 10.90625 28.09375 10.90625 33.296875 
Q 10.90625 38.296875 14.203125 41.1875 
Q 17.5 44.09375 23 44.09375 
Q 25 44.09375 28.59375 43.09375 
Q 30.796875 42.40625 32.203125 42.40625 
Q 34.203125 42.40625 35.203125 44.203125 
z
" id="STIXGeneral-Italic-73"/>
      <path d="M 16.796875 31.296875 
Q 20.296875 27.703125 20.296875 25.296875 
Q 20.296875 22.90625 18.546875 21.09375 
Q 16.796875 19.296875 14.390625 19.296875 
Q 12 19.296875 10.140625 21.140625 
Q 8.296875 23 8.296875 25.296875 
Q 8.296875 27.59375 10.140625 29.4375 
Q 12 31.296875 14.390625 31.296875 
Q 16.796875 31.296875 20.296875 27.703125 
z
" id="STIXGeneral-Regular-22c5"/>
      <path d="M 63.296875 65.296875 
L 58.90625 48.90625 
L 57.203125 49.09375 
Q 57.5 51.59375 57.5 53.703125 
Q 57.5 61.796875 47.40625 61.796875 
L 41.59375 61.796875 
L 27.90625 12.796875 
Q 26.5 7.90625 26.5 6.203125 
Q 26.5 3.90625 27.59375 3.046875 
Q 28.703125 2.203125 31.796875 1.90625 
L 35.296875 1.59375 
L 35.296875 0 
L 6.5 0 
L 6.5 1.59375 
Q 11.703125 2.09375 13.890625 3.59375 
Q 16.09375 5.09375 17.203125 9.09375 
L 31.5 61.796875 
Q 19.59375 61.796875 15.4375 59.640625 
Q 11.296875 57.5 7.703125 49.40625 
L 5.90625 49.796875 
L 10.09375 65.296875 
z
" id="STIXGeneral-Italic-54"/>
     </defs>
     <g transform="translate(34.159375 393.74)rotate(-90)scale(0.2 -0.2)">
      <use transform="translate(0 0.703125)" xlink:href="#STIXGeneral-Italic-3bc"/>
      <use transform="translate(52.599991 -12.525)scale(0.7)" xlink:href="#STIXGeneral-Regular-30"/>
      <use transform="translate(92.009355 0.703125)" xlink:href="#STIXGeneral-Italic-4d"/>
      <use transform="translate(175.309343 -12.525)scale(0.7)" xlink:href="#STIXGeneral-Italic-73"/>
      <use transform="translate(221.38871 0.703125)" xlink:href="#STIXGeneral-Regular-22c5"/>
      <use transform="translate(264.428697 0.703125)" xlink:href="#STIXGeneral-Italic-64"/>
      <use transform="translate(314.428682 -12.525)scale(0.7)" xlink:href="#STIXGeneral-Italic-46"/>
      <use transform="translate(381.663761 0.703125)" xlink:href="#STIXGeneral-Regular-2f"/>
      <use transform="translate(429.51946 0.703125)" xlink:href="#STIXGeneral-Italic-54"/>
      <use transform="translate(499.559447 0.703125)" xlink:href="#STIXGeneral-Regular-22c5"/>
      <use transform="translate(542.599435 0.703125)" xlink:href="#STIXGeneral-Italic-6e"/>
      <use transform="translate(592.599419 0.703125)" xlink:href="#STIXGeneral-Italic-6d"/>
     </g>
    </g>
   </g>
   <g id="line2d_101">
    <defs>
     <path d="M 0 3 
C 0.795609 3 1.55874 2.683901 2.12132 2.12132 
C 2.683901 1.55874 3 0.795609 3 0 
C 3 -0.795609 2.683901 -1.55874 2.12132 -2.12132 
C 1.55874 -2.683901 0.795609 -3 0 -3 
C -0.795609 -3 -1.55874 -2.683901 -2.12132 -2.12132 
C -2.683901 -1.55874 -3 -0.795609 -3 0 
C -3 0.795609 -2.683901 1.55874 -2.12132 2.12132 
C -1.55874 2.683901 -0.795609 3 0 3 
z
" id="m50d1ca234d" style="stroke:#000000;"/>
    </defs>
    <g clip-path="url(#p1cd0ad9965)">
     <use style="fill:#d3d3d3;stroke:#000000;" x="206.55" xlink:href="#m50d1ca234d" y="488.032717"/>
     <use style="fill:#d3d3d3;stroke:#000000;" x="290.25" xlink:href="#m50d1ca234d" y="418.320657"/>
     <use style="fill:#d3d3d3;stroke:#000000;" x="499.5" xlink:href="#m50d1ca234d" y="249.95014"/>
    </g>
   </g>
   <g id="line2d_102">
    <path clip-path="url(#p1cd0ad9965)" d="M 13.284132 649 
L 39.15 627.456835 
L 81 592.600805 
L 122.85 557.744776 
L 164.7 522.888746 
L 206.55 488.032717 
L 248.4 453.176687 
L 290.25 418.320657 
L 332.1 383.464628 
L 373.95 348.608598 
L 415.8 313.752569 
L 457.65 278.896539 
L 499.5 244.040509 
L 541.35 209.18448 
L 583.2 174.32845 
L 625.05 139.472421 
L 649 119.524944 
" style="fill:none;stroke:#000000;stroke-linecap:square;stroke-width:1.5;"/>
   </g>
   <g id="patch_3">
    <path d="M 81 576.72 
L 81 77.76 
" style="fill:none;stroke:#000000;stroke-linecap:square;stroke-linejoin:miter;stroke-width:1.5;"/>
   </g>
   <g id="patch_4">
    <path d="M 583.2 576.72 
L 583.2 77.76 
" style="fill:none;stroke:#000000;stroke-linecap:square;stroke-linejoin:miter;stroke-width:1.5;"/>
   </g>
   <g id="patch_5">
    <path d="M 81 576.72 
L 583.2 576.72 
" style="fill:none;stroke:#000000;stroke-linecap:square;stroke-linejoin:miter;stroke-width:1.5;"/>
   </g>
   <g id="patch_6">
    <path d="M 81 77.76 
L 583.2 77.76 
" style="fill:none;stroke:#000000;stroke-linecap:square;stroke-linejoin:miter;stroke-width:1.5;"/>
   </g>
   <g id="legend_1">
    <g id="patch_7">
     <path d="M 90.8 128.636875 
L 165.28 128.636875 
Q 168.08 128.636875 168.08 125.836875 
L 168.08 87.56 
Q 168.08 84.76 165.28 84.76 
L 90.8 84.76 
Q 88 84.76 88 87.56 
L 88 125.836875 
Q 88 128.636875 90.8 128.636875 
z
" style="fill:#ffffff;opacity:0.8;stroke:#cccccc;stroke-linejoin:miter;"/>
    </g>
    <g id="line2d_103"/>
    <g id="line2d_104">
     <g>
      <use style="fill:#d3d3d3;stroke:#000000;" x="107.6" xlink:href="#m50d1ca234d" y="95.26"/>
     </g>
    </g>
    <g id="text_28">
     <!-- $MDL$ -->
     <defs>
      <path d="M 13.09375 65.296875 
L 40.796875 65.296875 
Q 54.203125 65.296875 62.09375 58.296875 
Q 70 51.296875 70 38.40625 
Q 70 20.703125 54 8.296875 
Q 43.40625 0 24.90625 0 
L -0.796875 0 
L -0.796875 1.59375 
Q 3.5 2.40625 4.84375 3.59375 
Q 6.203125 4.796875 7.40625 9.203125 
L 19.59375 53.703125 
Q 20.703125 57.59375 20.703125 59.59375 
Q 20.703125 61.703125 19.09375 62.640625 
Q 17.5 63.59375 13.09375 63.703125 
z
M 31 58.40625 
L 19.203125 16.203125 
Q 17 8.203125 17 6.703125 
Q 17 3 23.796875 3 
Q 38.59375 3 47.90625 12 
Q 53.09375 17 56 24.953125 
Q 58.90625 32.90625 58.90625 40.796875 
Q 58.90625 52.90625 51.09375 58.796875 
Q 46.40625 62.296875 38 62.296875 
Q 34.796875 62.296875 33.25 61.546875 
Q 31.703125 60.796875 31 58.40625 
z
" id="STIXGeneral-Italic-44"/>
      <path d="M 55.90625 18 
L 50.09375 0 
L -0.796875 0 
L -0.796875 1.59375 
Q 3.40625 2 4.703125 3.296875 
Q 6 4.59375 7.40625 9.40625 
L 19.59375 53.203125 
Q 20.703125 56.90625 20.703125 59.40625 
Q 20.703125 61.59375 19.140625 62.5 
Q 17.59375 63.40625 13 63.703125 
L 13 65.296875 
L 40.296875 65.296875 
L 40.296875 63.703125 
Q 35.703125 63.40625 33.546875 61.796875 
Q 31.40625 60.203125 30.203125 56 
L 18.203125 13.09375 
Q 17.203125 9.296875 17.203125 7.703125 
Q 17.203125 5.40625 19.390625 4.5 
Q 21.59375 3.59375 27.703125 3.59375 
Q 35.40625 3.59375 38.75 4.296875 
Q 42.09375 5 45.703125 7.40625 
Q 49.796875 10.09375 53.90625 18.59375 
z
" id="STIXGeneral-Italic-4c"/>
     </defs>
     <g transform="translate(132.8 100.16)scale(0.14 -0.14)">
      <use transform="translate(0 0.703125)" xlink:href="#STIXGeneral-Italic-4d"/>
      <use transform="translate(83.299988 0.703125)" xlink:href="#STIXGeneral-Italic-44"/>
      <use transform="translate(155.499969 0.703125)" xlink:href="#STIXGeneral-Italic-4c"/>
     </g>
    </g>
    <g id="line2d_105">
     <path d="M 93.6 115.098437 
L 121.6 115.098437 
" style="fill:none;stroke:#000000;stroke-linecap:square;stroke-width:1.5;"/>
    </g>
    <g id="line2d_106"/>
    <g id="text_29">
     <!-- fit -->
     <defs>
      <path d="M 2.09375 45 
L 10.296875 45 
Q 10.40625 51 11.09375 54.34375 
Q 11.796875 57.703125 13.796875 61.09375 
Q 18 68.296875 27.90625 68.296875 
Q 32.40625 68.296875 35.34375 66.546875 
Q 38.296875 64.796875 38.296875 62.09375 
Q 38.296875 60.40625 37.09375 59.203125 
Q 35.90625 58 34.09375 58 
Q 31.703125 58 29.59375 61.59375 
Q 27.203125 65.5 24.296875 65.5 
Q 18.703125 65.5 18.703125 56.59375 
L 18.703125 45 
L 30.90625 45 
L 30.90625 41.796875 
L 18.703125 41.796875 
L 18.703125 10.40625 
Q 18.703125 4.796875 20.296875 3.25 
Q 21.90625 1.703125 28 1.5 
L 28 0 
L 2 0 
L 2 1.5 
Q 7.40625 1.796875 8.84375 3.34375 
Q 10.296875 4.90625 10.296875 10.40625 
L 10.296875 41.796875 
L 2.09375 41.796875 
z
" id="STIXGeneral-Regular-66"/>
      <path d="M 18 63.203125 
Q 18 61 16.5 59.546875 
Q 15 58.09375 12.796875 58.09375 
Q 10.703125 58.09375 9.25 59.546875 
Q 7.796875 61 7.796875 63.203125 
Q 7.796875 65.296875 9.296875 66.796875 
Q 10.796875 68.296875 12.90625 68.296875 
Q 15.09375 68.296875 16.546875 66.796875 
Q 18 65.296875 18 63.203125 
z
M 25.296875 0 
L 1.59375 0 
L 1.59375 1.5 
Q 6.796875 1.796875 8.140625 3.296875 
Q 9.5 4.796875 9.5 10.40625 
L 9.5 33.09375 
Q 9.5 36.59375 8.796875 38 
Q 8.09375 39.40625 6.203125 39.40625 
Q 3.796875 39.40625 2 38.90625 
L 2 40.5 
L 17.5 46 
L 17.90625 45.59375 
L 17.90625 10.5 
Q 17.90625 4.90625 19.15625 3.40625 
Q 20.40625 1.90625 25.296875 1.5 
z
" id="STIXGeneral-Regular-69"/>
      <path d="M 26.59375 7.703125 
L 27.90625 6.59375 
Q 23.09375 -1 15.796875 -1 
Q 7 -1 7 11.703125 
L 7 41.796875 
L 1.703125 41.796875 
Q 1.296875 42.09375 1.296875 42.5 
Q 1.296875 43.296875 3 44.40625 
Q 6.796875 46.59375 12.703125 55.09375 
Q 12.90625 55.40625 13.65625 56.34375 
Q 14.40625 57.296875 14.703125 57.90625 
Q 15.40625 57.90625 15.40625 56.59375 
L 15.40625 45 
L 25.5 45 
L 25.5 41.796875 
L 15.40625 41.796875 
L 15.40625 13.203125 
Q 15.40625 8.40625 16.59375 6.296875 
Q 17.796875 4.203125 20.59375 4.203125 
Q 23.59375 4.203125 26.59375 7.703125 
z
" id="STIXGeneral-Regular-74"/>
     </defs>
     <g transform="translate(132.8 119.998437)scale(0.14 -0.14)">
      <use xlink:href="#STIXGeneral-Regular-66"/>
      <use x="33.299988" xlink:href="#STIXGeneral-Regular-69"/>
      <use x="61.099976" xlink:href="#STIXGeneral-Regular-74"/>
     </g>
    </g>
   </g>
  </g>
  <g id="text_30">
   <!-- mdl_fit_plot_0.1.py -->
   <defs>
    <path d="M 77.5 0 
L 55.703125 0 
L 55.703125 1.5 
Q 59.90625 1.90625 61.046875 3.25 
Q 62.203125 4.59375 62.203125 9 
L 62.203125 29.59375 
Q 62.203125 35.59375 60.453125 38.1875 
Q 58.703125 40.796875 54.5 40.796875 
Q 51 40.796875 48.546875 39.390625 
Q 46.09375 38 43.796875 34.703125 
L 43.796875 9.5 
Q 43.796875 4.703125 45.25 3.140625 
Q 46.703125 1.59375 51 1.5 
L 51 0 
L 28.59375 0 
L 28.59375 1.5 
Q 33 1.796875 34.203125 2.9375 
Q 35.40625 4.09375 35.40625 8.59375 
L 35.40625 29.703125 
Q 35.40625 40.796875 28.90625 40.796875 
Q 26.09375 40.796875 22.9375 39.546875 
Q 19.796875 38.296875 18.296875 36.5 
Q 17 35 17 34.796875 
L 17 7 
Q 17 3.796875 18.390625 2.75 
Q 19.796875 1.703125 23.796875 1.5 
L 23.796875 0 
L 1.59375 0 
L 1.59375 1.5 
Q 5.796875 1.59375 7.1875 3.046875 
Q 8.59375 4.5 8.59375 8.796875 
L 8.59375 33.59375 
Q 8.59375 37.296875 7.796875 38.75 
Q 7 40.203125 5.09375 40.203125 
Q 3.59375 40.203125 1.90625 39.796875 
L 1.90625 41.5 
Q 8.703125 43.40625 15.796875 46 
L 16.59375 45.703125 
L 16.59375 38.296875 
L 16.796875 38.296875 
Q 21.296875 43 24.75 44.5 
Q 28.203125 46 32.09375 46 
Q 40 46 42.703125 37.59375 
Q 50.5 46 59 46 
Q 70.59375 46 70.59375 28 
L 70.59375 7.703125 
Q 70.59375 4.40625 71.59375 3.15625 
Q 72.59375 1.90625 74.90625 1.703125 
L 77.5 1.5 
z
" id="STIXGeneral-Regular-6d"/>
    <path d="M 49.09375 4.203125 
L 34.40625 -1 
L 34 -0.703125 
L 34 5.703125 
Q 29.203125 -1 21.203125 -1 
Q 12.90625 -1 7.796875 4.953125 
Q 2.703125 10.90625 2.703125 20.5 
Q 2.703125 31.09375 8.796875 38.546875 
Q 14.90625 46 23.5 46 
Q 28.90625 46 34 41.703125 
L 34 57.296875 
Q 34 60.40625 33.09375 61.40625 
Q 32.203125 62.40625 29.40625 62.40625 
Q 28 62.40625 27.203125 62.296875 
L 27.203125 63.90625 
Q 36.296875 66.296875 41.90625 68.296875 
L 42.40625 68.09375 
L 42.40625 11.40625 
Q 42.40625 7.90625 43.25 6.796875 
Q 44.09375 5.703125 46.796875 5.703125 
Q 47.40625 5.703125 49.09375 5.796875 
z
M 34 10.203125 
L 34 33.203125 
Q 34 37.203125 30.953125 40.203125 
Q 27.90625 43.203125 23.796875 43.203125 
Q 18.09375 43.203125 14.6875 38.09375 
Q 11.296875 33 11.296875 24.5 
Q 11.296875 15.296875 15.046875 9.75 
Q 18.796875 4.203125 25.09375 4.203125 
Q 29.796875 4.203125 32.5 7.40625 
Q 34 9.09375 34 10.203125 
z
" id="STIXGeneral-Regular-64"/>
    <path d="M 25.703125 0 
L 2.09375 0 
L 2.09375 1.5 
Q 6.796875 1.90625 8.296875 3.453125 
Q 9.796875 5 9.796875 9.203125 
L 9.796875 56.09375 
Q 9.796875 59.703125 8.890625 61.09375 
Q 8 62.5 5.59375 62.5 
Q 3.5 62.5 1.90625 62.296875 
L 1.90625 63.90625 
Q 11.40625 66.203125 17.703125 68.296875 
L 18.203125 67.90625 
L 18.203125 8.703125 
Q 18.203125 4.5 19.59375 3.140625 
Q 21 1.796875 25.703125 1.5 
z
" id="STIXGeneral-Regular-6c"/>
    <path d="M 50 -12.5 
L 0 -12.5 
L 0 -7.5 
L 50 -7.5 
z
" id="STIXGeneral-Regular-5f"/>
    <path d="M 15.90625 45.796875 
L 15.90625 38.09375 
Q 22.203125 46 30.296875 46 
Q 37.59375 46 42.296875 40 
Q 47 34 47 24.703125 
Q 47 13.796875 40.953125 6.390625 
Q 34.90625 -1 26 -1 
Q 22.90625 -1 20.75 -0.09375 
Q 18.59375 0.796875 15.90625 3.296875 
L 15.90625 -12.40625 
Q 15.90625 -17.09375 17.5 -18.4375 
Q 19.09375 -19.796875 24.703125 -19.90625 
L 24.703125 -21.703125 
L 0.5 -21.703125 
L 0.5 -20 
Q 4.90625 -19.59375 6.203125 -18.296875 
Q 7.5 -17 7.5 -13.09375 
L 7.5 33.703125 
Q 7.5 37.203125 6.703125 38.296875 
Q 5.90625 39.40625 3.40625 39.40625 
Q 1.796875 39.40625 0.90625 39.296875 
L 0.90625 40.90625 
Q 7.90625 43 15.296875 46 
z
M 15.90625 33.40625 
L 15.90625 8.796875 
Q 15.90625 6.59375 19.34375 4.390625 
Q 22.796875 2.203125 26.296875 2.203125 
Q 31.703125 2.203125 35.046875 7.296875 
Q 38.40625 12.40625 38.40625 20.703125 
Q 38.40625 29.5 35.046875 34.75 
Q 31.703125 40 26.09375 40 
Q 22.59375 40 19.25 37.796875 
Q 15.90625 35.59375 15.90625 33.40625 
z
" id="STIXGeneral-Regular-70"/>
    <path d="M 47 23.09375 
Q 47 12.59375 40.75 5.796875 
Q 34.5 -1 24.5 -1 
Q 15.296875 -1 9.09375 5.75 
Q 2.90625 12.5 2.90625 22.796875 
Q 2.90625 33.203125 9.09375 39.59375 
Q 15.296875 46 25.40625 46 
Q 34.703125 46 40.84375 39.640625 
Q 47 33.296875 47 23.09375 
z
M 38 20.40625 
Q 38 31.796875 33 38.203125 
Q 29 43.203125 23.5 43.203125 
Q 18.296875 43.203125 15.09375 38.953125 
Q 11.90625 34.703125 11.90625 27.296875 
Q 11.90625 14.5 17.203125 6.796875 
Q 20.59375 1.796875 26.203125 1.796875 
Q 31.703125 1.796875 34.84375 6.75 
Q 38 11.703125 38 20.40625 
z
" id="STIXGeneral-Regular-6f"/>
    <path d="M 47.5 45 
L 47.5 43.5 
Q 45.703125 43.296875 44.59375 42.1875 
Q 43.5 41.09375 42.5 38.40625 
L 27.5 -2.5 
Q 23.59375 -13.09375 19.640625 -17.4375 
Q 15.703125 -21.796875 10 -21.796875 
Q 6.796875 -21.796875 4.890625 -20.140625 
Q 3 -18.5 3 -16 
Q 3 -14.09375 4.25 -12.75 
Q 5.5 -11.40625 7.296875 -11.40625 
Q 10.203125 -11.40625 12.5 -12.703125 
Q 13.796875 -13.40625 15.09375 -13.40625 
Q 17.203125 -13.40625 20.09375 -9 
Q 21.5 -7 22.796875 -3.296875 
Q 24.09375 0.40625 24.09375 1.796875 
Q 24.09375 3.09375 19.90625 11.90625 
L 6.703125 40.09375 
Q 5.40625 43 1.40625 43.59375 
L 1.40625 45 
L 21.90625 45 
L 21.90625 43.5 
Q 18.703125 43.40625 17.453125 42.796875 
Q 16.203125 42.203125 16.203125 40.796875 
Q 16.203125 39.703125 17.5 36.703125 
L 28.703125 11.703125 
L 38.40625 39.296875 
Q 38.796875 40.203125 38.796875 41.09375 
Q 38.796875 43.5 34.203125 43.5 
L 34.203125 45 
z
" id="STIXGeneral-Regular-79"/>
   </defs>
   <g transform="translate(518.4 12.96)scale(0.12 -0.12)">
    <use xlink:href="#STIXGeneral-Regular-6d"/>
    <use x="77.799988" xlink:href="#STIXGeneral-Regular-64"/>
    <use x="127.799973" xlink:href="#STIXGeneral-Regular-6c"/>
    <use x="155.59996" xlink:href="#STIXGeneral-Regular-5f"/>
    <use x="205.599945" xlink:href="#STIXGeneral-Regular-66"/>
    <use x="238.899933" xlink:href="#STIXGeneral-Regular-69"/>
    <use x="266.699921" xlink:href="#STIXGeneral-Regular-74"/>
    <use x="294.499908" xlink:href="#STIXGeneral-Regular-5f"/>
    <use x="344.499893" xlink:href="#STIXGeneral-Regular-70"/>
    <use x="394.499878" xlink:href="#STIXGeneral-Regular-6c"/>
    <use x="422.299866" xlink:href="#STIXGeneral-Regular-6f"/>
    <use x="472.29985" xlink:href="#STIXGeneral-Regular-74"/>
    <use x="500.099838" xlink:href="#STIXGeneral-Regular-5f"/>
    <use x="550.099823" xlink:href="#STIXGeneral-Regular-30"/>
    <use x="600.099808" xlink:href="#STIXGeneral-Regular-2e"/>
    <use x="625.099792" xlink:href="#STIXGeneral-Regular-31"/>
    <use x="675.099777" xlink:href="#STIXGeneral-Regular-2e"/>
    <use x="700.099762" xlink:href="#STIXGeneral-Regular-70"/>
    <use x="750.099747" xlink:href="#STIXGeneral-Regular-79"/>
   </g>
  </g>
  <g id="text_31">
   <!-- $MDL:$ 0.456$\;nm$	a: 0.8382883499999998	b: -0.3819337499999991 -->
   <defs>
    <path d="M 15.90625 45.90625 
Q 19.203125 42.59375 19.203125 40.296875 
Q 19.203125 38 17.59375 36.390625 
Q 16 34.796875 13.703125 34.796875 
Q 11.40625 34.796875 9.75 36.4375 
Q 8.09375 38.09375 8.09375 40.296875 
Q 8.09375 42.703125 9.6875 44.296875 
Q 11.296875 45.90625 13.703125 45.90625 
Q 15.90625 45.90625 19.203125 42.59375 
z
M 19.203125 4.40625 
Q 19.203125 2.203125 17.59375 0.546875 
Q 16 -1.09375 13.703125 -1.09375 
Q 11.40625 -1.09375 9.75 0.546875 
Q 8.09375 2.203125 8.09375 4.40625 
Q 8.09375 6.796875 9.6875 8.390625 
Q 11.296875 10 13.703125 10 
Q 15.90625 10 17.546875 8.34375 
Q 19.203125 6.703125 19.203125 4.40625 
z
" id="STIXGeneral-Regular-3a"/>
    <path id="STIXGeneral-Regular-20"/>
    <path d="M 44.203125 6.59375 
L 44.203125 3.796875 
Q 40.40625 -1 35.203125 -1 
Q 29.5 -1 28.796875 6.296875 
L 28.703125 6.296875 
Q 22.296875 -1 14.203125 -1 
Q 9.5 -1 6.59375 1.75 
Q 3.703125 4.5 3.703125 9.40625 
Q 3.703125 16.40625 10.703125 21.09375 
Q 15.5 24.296875 28.703125 29.203125 
L 28.703125 34.59375 
Q 28.703125 39.09375 26.546875 41.34375 
Q 24.40625 43.59375 20.90625 43.59375 
Q 17.90625 43.59375 15.90625 42.140625 
Q 13.90625 40.703125 13.90625 38.703125 
Q 13.90625 37.796875 14.203125 36.6875 
Q 14.5 35.59375 14.5 34.5 
Q 14.5 33 13.140625 31.703125 
Q 11.796875 30.40625 9.90625 30.40625 
Q 8.203125 30.40625 6.890625 31.703125 
Q 5.59375 33 5.59375 35 
Q 5.59375 39.796875 10.703125 43 
Q 15.40625 46 22.203125 46 
Q 30.296875 46 34 41.5 
Q 35.796875 39.40625 36.296875 37.25 
Q 36.796875 35.09375 36.796875 30.40625 
L 36.796875 11.296875 
Q 36.796875 4.703125 39.90625 4.703125 
Q 41.90625 4.703125 44.203125 6.59375 
z
M 28.703125 12.703125 
L 28.703125 26.796875 
Q 19.5 23.59375 15.90625 20.203125 
Q 12.5 17.09375 12.5 12.5 
Q 12.5 8.703125 14.390625 6.75 
Q 16.296875 4.796875 19.40625 4.796875 
Q 22.703125 4.796875 25.203125 6.40625 
Q 27.296875 7.90625 28 9.203125 
Q 28.703125 10.5 28.703125 12.703125 
z
" id="STIXGeneral-Regular-61"/>
    <path d="M 15.296875 68.09375 
L 15.296875 37.59375 
Q 16.90625 41.40625 20.546875 43.703125 
Q 24.203125 46 28.796875 46 
Q 36.703125 46 41.75 39.703125 
Q 46.796875 33.40625 46.796875 24 
Q 46.796875 13 40.09375 6 
Q 33.40625 -1 23.40625 -1 
Q 17.296875 -1 12.09375 1.046875 
Q 6.90625 3.09375 6.90625 5.59375 
L 6.90625 56.59375 
Q 6.90625 60.296875 6 61.34375 
Q 5.09375 62.40625 2 62.40625 
Q 1.296875 62.40625 0.296875 62.203125 
L 0.296875 63.90625 
L 3.296875 64.796875 
Q 13.5 67.90625 14.796875 68.296875 
z
M 15.296875 31.796875 
L 15.296875 7.40625 
Q 15.296875 5.09375 18.140625 3.640625 
Q 21 2.203125 25 2.203125 
Q 30.90625 2.203125 34.296875 6.5 
Q 38 11.09375 38 19.703125 
Q 38 29.5 34.09375 35 
Q 30.796875 39.703125 25.203125 39.703125 
Q 21.203125 39.703125 18.25 37.34375 
Q 15.296875 35 15.296875 31.796875 
z
" id="STIXGeneral-Regular-62"/>
    <path d="M 28.5 19.40625 
L 3.90625 19.40625 
L 3.90625 25.703125 
L 28.5 25.703125 
z
" id="STIXGeneral-Regular-2d"/>
   </defs>
   <g transform="translate(32.4 37.327687)scale(0.14 -0.14)">
    <use transform="translate(0 0.203125)" xlink:href="#STIXGeneral-Italic-4d"/>
    <use transform="translate(83.299988 0.203125)" xlink:href="#STIXGeneral-Italic-44"/>
    <use transform="translate(155.499969 0.203125)" xlink:href="#STIXGeneral-Italic-4c"/>
    <use transform="translate(225.539957 0.203125)" xlink:href="#STIXGeneral-Regular-3a"/>
    <use transform="translate(267.779941 0.203125)" xlink:href="#STIXGeneral-Regular-20"/>
    <use transform="translate(292.779926 0.203125)" xlink:href="#STIXGeneral-Regular-30"/>
    <use transform="translate(342.77991 0.203125)" xlink:href="#STIXGeneral-Regular-2e"/>
    <use transform="translate(367.779895 0.203125)" xlink:href="#STIXGeneral-Regular-34"/>
    <use transform="translate(417.77988 0.203125)" xlink:href="#STIXGeneral-Regular-35"/>
    <use transform="translate(467.779865 0.203125)" xlink:href="#STIXGeneral-Regular-36"/>
    <use transform="translate(537.83556 0.203125)" xlink:href="#STIXGeneral-Italic-6e"/>
    <use transform="translate(587.835545 0.203125)" xlink:href="#STIXGeneral-Italic-6d"/>
    <use transform="translate(660.035527 0.203125)" xlink:href="#STIXGeneral-Regular-20"/>
    <use transform="translate(685.035511 0.203125)" xlink:href="#STIXGeneral-Regular-20"/>
    <use transform="translate(710.035496 0.203125)" xlink:href="#STIXGeneral-Regular-20"/>
    <use transform="translate(735.035481 0.203125)" xlink:href="#STIXGeneral-Regular-20"/>
    <use transform="translate(760.035466 0.203125)" xlink:href="#STIXGeneral-Regular-20"/>
    <use transform="translate(785.03545 0.203125)" xlink:href="#STIXGeneral-Regular-20"/>
    <use transform="translate(810.035435 0.203125)" xlink:href="#STIXGeneral-Regular-61"/>
    <use transform="translate(854.435429 0.203125)" xlink:href="#STIXGeneral-Regular-3a"/>
    <use transform="translate(882.235417 0.203125)" xlink:href="#STIXGeneral-Regular-20"/>
    <use transform="translate(907.235401 0.203125)" xlink:href="#STIXGeneral-Regular-30"/>
    <use transform="translate(957.235386 0.203125)" xlink:href="#STIXGeneral-Regular-2e"/>
    <use transform="translate(982.235371 0.203125)" xlink:href="#STIXGeneral-Regular-38"/>
    <use transform="translate(1032.235356 0.203125)" xlink:href="#STIXGeneral-Regular-33"/>
    <use transform="translate(1082.23534 0.203125)" xlink:href="#STIXGeneral-Regular-38"/>
    <use transform="translate(1132.235325 0.203125)" xlink:href="#STIXGeneral-Regular-32"/>
    <use transform="translate(1182.23531 0.203125)" xlink:href="#STIXGeneral-Regular-38"/>
    <use transform="translate(1232.235295 0.203125)" xlink:href="#STIXGeneral-Regular-38"/>
    <use transform="translate(1282.235279 0.203125)" xlink:href="#STIXGeneral-Regular-33"/>
    <use transform="translate(1332.235264 0.203125)" xlink:href="#STIXGeneral-Regular-34"/>
    <use transform="translate(1382.235249 0.203125)" xlink:href="#STIXGeneral-Regular-39"/>
    <use transform="translate(1432.235234 0.203125)" xlink:href="#STIXGeneral-Regular-39"/>
    <use transform="translate(1482.235218 0.203125)" xlink:href="#STIXGeneral-Regular-39"/>
    <use transform="translate(1532.235203 0.203125)" xlink:href="#STIXGeneral-Regular-39"/>
    <use transform="translate(1582.235188 0.203125)" xlink:href="#STIXGeneral-Regular-39"/>
    <use transform="translate(1632.235173 0.203125)" xlink:href="#STIXGeneral-Regular-39"/>
    <use transform="translate(1682.235157 0.203125)" xlink:href="#STIXGeneral-Regular-39"/>
    <use transform="translate(1732.235142 0.203125)" xlink:href="#STIXGeneral-Regular-38"/>
    <use transform="translate(1782.235127 0.203125)" xlink:href="#STIXGeneral-Regular-20"/>
    <use transform="translate(1807.235112 0.203125)" xlink:href="#STIXGeneral-Regular-20"/>
    <use transform="translate(1832.235096 0.203125)" xlink:href="#STIXGeneral-Regular-20"/>
    <use transform="translate(1857.235081 0.203125)" xlink:href="#STIXGeneral-Regular-62"/>
    <use transform="translate(1907.235066 0.203125)" xlink:href="#STIXGeneral-Regular-3a"/>
    <use transform="translate(1935.035054 0.203125)" xlink:href="#STIXGeneral-Regular-20"/>
    <use transform="translate(1960.035038 0.203125)" xlink:href="#STIXGeneral-Regular-2d"/>
    <use transform="translate(1993.335026 0.203125)" xlink:href="#STIXGeneral-Regular-30"/>
    <use transform="translate(2043.335011 0.203125)" xlink:href="#STIXGeneral-Regular-2e"/>
    <use transform="translate(2068.334996 0.203125)" xlink:href="#STIXGeneral-Regular-33"/>
    <use transform="translate(2118.33498 0.203125)" xlink:href="#STIXGeneral-Regular-38"/>
    <use transform="translate(2168.334965 0.203125)" xlink:href="#STIXGeneral-Regular-31"/>
    <use transform="translate(2218.33495 0.203125)" xlink:href="#STIXGeneral-Regular-39"/>
    <use transform="translate(2268.334935 0.203125)" xlink:href="#STIXGeneral-Regular-33"/>
    <use transform="translate(2318.334919 0.203125)" xlink:href="#STIXGeneral-Regular-33"/>
    <use transform="translate(2368.334904 0.203125)" xlink:href="#STIXGeneral-Regular-37"/>
    <use transform="translate(2418.334889 0.203125)" xlink:href="#STIXGeneral-Regular-34"/>
    <use transform="translate(2468.334874 0.203125)" xlink:href="#STIXGeneral-Regular-39"/>
    <use transform="translate(2518.334858 0.203125)" xlink:href="#STIXGeneral-Regular-39"/>
    <use transform="translate(2568.334843 0.203125)" xlink:href="#STIXGeneral-Regular-39"/>
    <use transform="translate(2618.334828 0.203125)" xlink:href="#STIXGeneral-Regular-39"/>
    <use transform="translate(2668.334812 0.203125)" xlink:href="#STIXGeneral-Regular-39"/>
    <use transform="translate(2718.334797 0.203125)" xlink:href="#STIXGeneral-Regular-39"/>
    <use transform="translate(2768.334782 0.203125)" xlink:href="#STIXGeneral-Regular-39"/>
    <use transform="translate(2818.334767 0.203125)" xlink:href="#STIXGeneral-Regular-31"/>
   </g>
   <!-- $R^2:$1.0	S: 0.0 -->
   <defs>
    <path d="M 13.203125 65.296875 
L 38.40625 65.296875 
Q 48.09375 65.296875 53.4375 61.5 
Q 58.796875 57.703125 58.796875 51.203125 
Q 58.796875 43.40625 52.203125 38.40625 
Q 48.296875 35.40625 39.09375 33.296875 
L 48 9.796875 
Q 49.703125 5.203125 51.546875 3.390625 
Q 53.40625 1.59375 56.703125 1.59375 
L 56.703125 0 
L 42 0 
L 29.703125 32.40625 
L 23.09375 32.90625 
L 17.59375 12.59375 
Q 16.296875 8 16.296875 6.296875 
Q 16.296875 4 17.59375 3 
Q 18.90625 2 23 1.59375 
L 23 0 
L -1.296875 0 
L -1.296875 1.59375 
Q 2.703125 2.09375 4.34375 3.796875 
Q 6 5.5 7.203125 10.09375 
L 19.09375 53.203125 
Q 20.296875 57.796875 20.296875 59.5 
Q 20.296875 61.296875 18.90625 62.296875 
Q 17.703125 63.09375 13.203125 63.703125 
z
M 30.59375 59.296875 
L 24.296875 36.59375 
Q 27.40625 36.09375 29.40625 36.09375 
Q 38.296875 36.09375 43.296875 40.09375 
Q 48.296875 44.09375 48.296875 51.09375 
Q 48.296875 56.296875 45.1875 59.296875 
Q 42.09375 62.296875 36.296875 62.296875 
Q 31.40625 62.296875 30.59375 59.296875 
z
" id="STIXGeneral-Italic-52"/>
    <path d="M 46.90625 46.296875 
L 44.40625 46.296875 
Q 42.703125 52.5 40.296875 55.703125 
Q 34.203125 63.5 25.796875 63.5 
Q 21.203125 63.5 18.453125 60.84375 
Q 15.703125 58.203125 15.703125 54 
Q 15.703125 52 16.703125 50.09375 
Q 17.703125 48.203125 18.84375 46.84375 
Q 20 45.5 22.890625 43.5 
Q 25.796875 41.5 27.59375 40.453125 
Q 29.40625 39.40625 33.59375 36.90625 
Q 41.703125 32.203125 45.390625 27.546875 
Q 49.09375 22.90625 49.09375 17.296875 
Q 49.09375 9 43.296875 3.796875 
Q 37.5 -1.40625 28.703125 -1.40625 
Q 22.203125 -1.40625 16.90625 0.90625 
Q 14.296875 2 12.203125 2 
Q 11 2 10.203125 1.09375 
Q 9.40625 0.203125 9.40625 -1.296875 
L 7.203125 -1.296875 
L 4.296875 19.90625 
L 6.5 19.90625 
Q 13.203125 2.203125 27.09375 2.203125 
Q 32.40625 2.203125 35.703125 5.34375 
Q 39 8.5 39 13.40625 
Q 39 18.09375 36.09375 21.296875 
Q 31.296875 26.5 19.296875 32.90625 
Q 7.09375 39.40625 7.09375 50.09375 
Q 7.09375 58.09375 12 62.84375 
Q 16.90625 67.59375 24.5 67.59375 
Q 29.796875 67.59375 35 65.40625 
Q 37.703125 64.203125 39.40625 64.203125 
Q 42 64.203125 42.59375 67.59375 
L 44.703125 67.59375 
z
" id="STIXGeneral-Regular-53"/>
   </defs>
   <g transform="translate(32.4 51.84)scale(0.14 -0.14)">
    <use transform="translate(0 0.409375)" xlink:href="#STIXGeneral-Italic-52"/>
    <use transform="translate(71.725772 35.684375)scale(0.7)" xlink:href="#STIXGeneral-Regular-32"/>
    <use transform="translate(125.575133 0.409375)" xlink:href="#STIXGeneral-Regular-3a"/>
    <use transform="translate(167.815117 0.409375)" xlink:href="#STIXGeneral-Regular-31"/>
    <use transform="translate(217.815102 0.409375)" xlink:href="#STIXGeneral-Regular-2e"/>
    <use transform="translate(242.815086 0.409375)" xlink:href="#STIXGeneral-Regular-30"/>
    <use transform="translate(292.815071 0.409375)" xlink:href="#STIXGeneral-Regular-20"/>
    <use transform="translate(317.815056 0.409375)" xlink:href="#STIXGeneral-Regular-20"/>
    <use transform="translate(342.815041 0.409375)" xlink:href="#STIXGeneral-Regular-20"/>
    <use transform="translate(367.815025 0.409375)" xlink:href="#STIXGeneral-Regular-20"/>
    <use transform="translate(392.81501 0.409375)" xlink:href="#STIXGeneral-Regular-20"/>
    <use transform="translate(417.814995 0.409375)" xlink:href="#STIXGeneral-Regular-20"/>
    <use transform="translate(442.81498 0.409375)" xlink:href="#STIXGeneral-Regular-20"/>
    <use transform="translate(467.814964 0.409375)" xlink:href="#STIXGeneral-Regular-53"/>
    <use transform="translate(523.414955 0.409375)" xlink:href="#STIXGeneral-Regular-3a"/>
    <use transform="translate(551.214943 0.409375)" xlink:href="#STIXGeneral-Regular-20"/>
    <use transform="translate(576.214928 0.409375)" xlink:href="#STIXGeneral-Regular-30"/>
    <use transform="translate(626.214912 0.409375)" xlink:href="#STIXGeneral-Regular-2e"/>
    <use transform="translate(651.214897 0.409375)" xlink:href="#STIXGeneral-Regular-30"/>
   </g>
  </g>
 </g>
 <defs>
  <clipPath id="p1cd0ad9965">
   <rect height="498.96" width="502.2" x="81" y="77.76"/>
  </clipPath>
 </defs>
</svg>
